<?xml version="1.0" encoding="utf-8"?>
<!-- Generator: Adobe Illustrator 16.0.0, SVG Export Plug-In . SVG Version: 6.00 Build 0)  -->
<!DOCTYPE svg PUBLIC "-//W3C//DTD SVG 1.1//EN" "http://www.w3.org/Graphics/SVG/1.1/DTD/svg11.dtd">
<svg version="1.1" id="Layer_1" xmlns="http://www.w3.org/2000/svg" xmlns:xlink="http://www.w3.org/1999/xlink" x="0px" y="0px"
	 width="82px" height="105px" viewBox="0 0 82 105" enable-background="new 0 0 82 105" xml:space="preserve">
<g>
	<g>
		<g>
			<path fill="#87C6BF" d="M73.19,50.34c0.59,1.93-0.63,3.99-2.73,4.59c-2.02,0.59-4.06,1.271-6.09,2.051
				c-1.9,0.729-3.8,1.539-5.67,2.42c-4.77,2.25-9.37,4.97-13.54,8c-4.35,3.17-8.23,6.68-11.29,10.38
				c-4.36,5.3-7.05,10.96-7.06,16.47c0,1.36-0.82,2.64-2.12,3.3c-0.36,0.181-0.75,0.311-1.14,0.391c-1.01,0.189-2.07,0.01-2.93-0.53
				c-3.89-2.43-4.75-6.66-6.09-10.351c-1.03-2.869-2.01-5.569-3.68-6.39c-1.9-0.939-2.58-3.15-1.51-4.95
				c1.06-1.8,3.46-2.489,5.36-1.55c4.08,2.021,5.08,6.07,6.43,9.76c0.48-1.16,1.05-2.319,1.69-3.479c0.46-0.83,0.94-1.65,1.47-2.47
				c0.08-0.12,0.16-0.25,0.25-0.37c0.29,0.43,0.6,0.85,0.91,1.27c0.42-0.79,0.88-1.59,1.38-2.38c1.99-3.14,4.55-6.25,7.65-9.27
				c0.91-0.881,1.85-1.75,2.85-2.61c0.51-0.45,1.03-0.88,1.56-1.32c1.77-1.439,3.64-2.819,5.59-4.14c0.18-0.13,0.38-0.26,0.58-0.38
				c2.99-1.99,6.14-3.8,9.39-5.4c0.48-0.24,0.97-0.46,1.45-0.69c0.88-0.41,1.77-0.81,2.65-1.19l-0.03-0.05
				c0.39-0.16,0.77-0.34,1.16-0.5c2.87-1.17,5.76-2.19,8.65-3.02c0.23-0.06,0.47-0.1,0.7-0.13c0.07-0.01,0.14-0.01,0.21-0.01
				c0.17-0.02,0.34-0.02,0.51-0.01c0.07,0.01,0.14,0.01,0.21,0.02c0.22,0.02,0.43,0.06,0.63,0.11c0.07,0.02,0.13,0.05,0.19,0.07
				c0.14,0.05,0.29,0.1,0.42,0.16c0.09,0.04,0.17,0.08,0.26,0.13c0.1,0.06,0.21,0.13,0.31,0.19c0.07,0.06,0.15,0.11,0.23,0.16
				c0.15,0.12,0.28,0.25,0.41,0.38v0.01C72.76,49.38,73.03,49.83,73.19,50.34"/>
			<path fill="#87C6BF" d="M58.52,51.45l0.03,0.05c-0.88,0.38-1.77,0.78-2.65,1.19c-0.48,0.23-0.97,0.45-1.45,0.69
				c-3.25,1.601-6.4,3.41-9.39,5.4c-0.2,0.12-0.4,0.25-0.58,0.38c-1.95,1.32-3.82,2.7-5.59,4.14c-0.53,0.44-1.05,0.87-1.56,1.32
				c-1,0.86-1.94,1.729-2.85,2.61c-3.1,3.02-5.66,6.13-7.65,9.27c-0.5,0.79-0.96,1.59-1.38,2.38c-0.31-0.42-0.62-0.84-0.91-1.27
				c2.7-4.12,6.36-8.181,10.95-12.091c0.55-0.47,1.11-0.93,1.68-1.39c1.89-1.52,3.89-2.979,5.98-4.38c0.2-0.14,0.41-0.27,0.62-0.41
				c3.2-2.1,6.59-4.04,10.07-5.75c1.45-0.71,2.93-1.38,4.4-2.02C58.33,51.53,58.43,51.49,58.52,51.45"/>
			<path fill="#276172" d="M58.52,51.45c-0.09,0.04-0.19,0.08-0.28,0.12c-1.47,0.64-2.95,1.31-4.4,2.02
				c-3.48,1.71-6.87,3.65-10.07,5.75c-0.21,0.141-0.42,0.271-0.62,0.41c-2.09,1.4-4.09,2.86-5.98,4.38
				c-0.57,0.46-1.13,0.92-1.68,1.39c-4.59,3.91-8.25,7.971-10.95,12.091c-1.15-1.66-2.16-3.391-3.02-5.19
				c-4.15-8.72-5.03-18.86-3.1-28.86c0.05-0.27,0.1-0.54,0.16-0.82c0.74-3.6,1.86-7.17,3.31-10.65c0.12-0.3,0.25-0.6,0.38-0.89
				c0.07-0.17,0.14-0.33,0.21-0.49c0.18-0.44,0.36-0.87,0.57-1.3c0.6-1.27,1.2-2.55,1.9-3.78c0.1-0.18,0.21-0.36,0.32-0.54
				c0.47-0.76,1-1.49,1.49-2.25c0.54-0.86,1.12-1.7,1.71-2.54c2.3-3.27,4.95-6.34,7.92-9.13c2.75-2.59,5.78-4.94,9.08-6.97
				c0,0.48,0.03,0.93,0.04,1.4c0.04,1.78,0.1,3.53,0.22,5.23c0.02,0.3,0.04,0.6,0.06,0.9v0.03c0.07,0.97,0.15,1.92,0.25,2.86
				c0.03,0.32,0.07,0.63,0.1,0.95c0.05,0.47,0.1,0.95,0.15,1.41c0.05,0.35,0.08,0.72,0.11,1.08c0.03,0.32,0.06,0.64,0.1,0.95
				c0.01,0.03,0.01,0.07,0.01,0.11c0.12,0.85,0.24,1.7,0.38,2.54c0.01,0.07,0.03,0.14,0.05,0.21c0.06,0.31,0.13,0.6,0.19,0.92
				c0.18,1,0.37,2,0.58,2.98c0.05,0.23,0.1,0.46,0.15,0.7c1.48,6.68,3.63,12.7,6.5,18.18c0.66,1.25,1.34,2.49,2.08,3.69L58.52,51.45
				z M51.59,49.45c-3.78-6.55-6.51-13.74-8.32-21.93l-0.06-0.27c-0.03-0.17-0.07-0.34-0.11-0.51c-0.24-1.15-0.44-2.15-0.6-3.1
				c-0.02-0.12-0.05-0.25-0.08-0.37l-0.09-0.42c-0.03-0.15-0.06-0.28-0.08-0.41c-0.15-0.87-0.27-1.76-0.4-2.64l-0.02-0.21
				l-0.01-0.03c-0.03-0.3-0.06-0.6-0.09-0.9l-0.01-0.13l-0.01-0.13c-0.03-0.28-0.05-0.55-0.09-0.82v-0.03v-0.03
				c-0.05-0.38-0.09-0.78-0.13-1.17l-0.03-0.28l-0.02-0.24c-0.03-0.25-0.06-0.49-0.08-0.74c-0.07-0.6-0.12-1.21-0.17-1.83
				c-0.09,0.07-0.16,0.14-0.25,0.22c-0.46,0.4-0.92,0.81-1.36,1.23c-2.67,2.52-5.13,5.35-7.3,8.42c-0.61,0.86-1.13,1.63-1.58,2.34
				c-0.24,0.37-0.47,0.71-0.7,1.05c-0.25,0.38-0.51,0.75-0.75,1.14c-0.09,0.16-0.17,0.28-0.24,0.4c-0.54,0.97-1.05,2.04-1.6,3.18
				l-0.13,0.28c-0.17,0.37-0.33,0.73-0.48,1.1l-0.01,0.03l-0.02,0.03l-0.07,0.16c-0.04,0.12-0.1,0.23-0.15,0.34
				c-0.06,0.15-0.12,0.3-0.19,0.45l-0.16,0.4c-1.32,3.16-2.34,6.44-3.02,9.72c-0.05,0.23-0.1,0.47-0.14,0.72
				c-1.78,9.26-0.89,18.07,2.56,25.54c2.33-3.01,5.1-5.92,8.28-8.7c0.14-0.119,0.26-0.25,0.41-0.369c0.54-0.471,1.1-0.94,1.66-1.4
				c1.86-1.51,3.85-2.99,5.93-4.4l0.37-0.239l0.22-0.15C45.39,52.81,48.45,51.03,51.59,49.45"/>
			<path fill="#E8B447" d="M43.27,27.52c1.81,8.19,4.54,15.38,8.32,21.93c-3.14,1.58-6.2,3.36-9.12,5.3l-0.22,0.15l-0.37,0.239
				c-2.08,1.41-4.07,2.891-5.93,4.4c-0.56,0.46-1.12,0.93-1.66,1.4c-0.15,0.119-0.27,0.25-0.41,0.369
				c-1.3-16.379,0.32-33.74,7.06-47.83c0.09-0.08,0.16-0.15,0.25-0.22c0.05,0.62,0.1,1.23,0.17,1.83c0.02,0.25,0.05,0.49,0.08,0.74
				l0.02,0.24l0.03,0.28c0.04,0.39,0.08,0.79,0.13,1.17v0.03v0.03c0.04,0.27,0.06,0.54,0.09,0.82l0.01,0.13l0.01,0.13
				c0.03,0.3,0.06,0.6,0.09,0.9l0.01,0.03l0.02,0.21c0.13,0.88,0.25,1.77,0.4,2.64c0.02,0.13,0.05,0.26,0.08,0.41l0.09,0.42
				c0.03,0.12,0.06,0.25,0.08,0.37c0.16,0.95,0.36,1.95,0.6,3.1c0.04,0.17,0.08,0.34,0.11,0.51L43.27,27.52z"/>
		</g>
	</g>
</g>
</svg>
